# xmcd
#
# Track frame offsets:
#	150
#	12605
#	26827
#	41344
#	56022
#	71311
#	87642
#	101483
#	114852
#	131560
#	145349
#	159133
#
# Disc length: 2337 seconds
#
# Revision: 1
# Processed by: cddbd v1.4PL0 Copyright (c) Steve Scherf et al.
# Submitted via: audiograbber 1.81.03
#
DISCID=9b091f0c
DTITLE=Los Razos De Sacramento Y Reynaldo - Para Gallos Jugados
DYEAR=1996
DGENRE=Latin
TTITLE0=Soy Malandrin
TTITLE1=Los Dos Camaradas
TTITLE2=La Fuga De Un Sinaloense
TTITLE3=Ya Me Canse De Ser Pobre
TTITLE4=La Parcela Del Bonete
TTITLE5=El Cable De Acero
TTITLE6=El Cartel De Las Calles
TTITLE7=Gallos Jugados
TTITLE8=Soy De La Sierra
TTITLE9=Carga Pagada
TTITLE10=La Tranza
TTITLE11=Servando Villa
EXTD=::[Carlos_Mp3s]::.. ..::[Rips]::..
EXTT0=
EXTT1=
EXTT2=
EXTT3=
EXTT4=
EXTT5=
EXTT6=
EXTT7=
EXTT8=
EXTT9=
EXTT10=
EXTT11=
PLAYORDER=
